HIERARCHY
ROOT SpineBase
{
  OFFSET 0.000000 0.000000 0.000000
  CHANNELS 6 Xposition Yposition Zposition Zrotation Xrotation Yrotation
  JOINT SpineMid
  {
    OFFSET -0.000000 29.665185 0.000000
    CHANNELS 3 Zrotation Xrotation Yrotation
    JOINT SpineShoulder
    {
      OFFSET -0.245884 21.974653 -0.558810
      CHANNELS 3 Zrotation Xrotation Yrotation
      JOINT Neck
      {
        OFFSET -0.109072 7.284083 -0.509037
        CHANNELS 3 Zrotation Xrotation Yrotation
        JOINT Head
        {
          OFFSET -2.824911 11.868395 2.279785
          CHANNELS 3 Zrotation Xrotation Yrotation
          End Site
          {
            OFFSET 0 0 0
          }
        }
      }
      JOINT ShoulderLeft
      {
        OFFSET -9.758554 -3.437903 11.540656
        CHANNELS 3 Zrotation Xrotation Yrotation
        JOINT ElbowLeft
        {
          OFFSET -2.230398 -31.324566 0.353073
          CHANNELS 3 Zrotation Xrotation Yrotation
          JOINT WristLeft
          {
            OFFSET 2.336282 -22.622264 2.703862
            CHANNELS 3 Zrotation Xrotation Yrotation
            JOINT HandLeft
            {
              OFFSET -0.223376 -3.317282 -0.503999
              CHANNELS 3 Zrotation Xrotation Yrotation
              JOINT HandTipLeft
              {
                OFFSET 0.729058 -6.056584 -4.324248
                CHANNELS 3 Zrotation Xrotation Yrotation
                End Site
                {
                  OFFSET 0 0 0
                }
              }
              JOINT ThumbLeft
              {
                OFFSET 0.909170 -0.911746 -5.070144
                CHANNELS 3 Zrotation Xrotation Yrotation
                End Site
                {
                  OFFSET 0 0 0
                }
              }
            }
          }
        }
      }
      JOINT ShoulderRight
      {
        OFFSET 4.804148 -3.878181 -13.261433
        CHANNELS 3 Zrotation Xrotation Yrotation
        JOINT ElbowRight
        {
          OFFSET 4.981207 -25.563522 -4.868509
          CHANNELS 3 Zrotation Xrotation Yrotation
          JOINT WristRight
          {
            OFFSET -5.243053 -22.326181 -3.576498
            CHANNELS 3 Zrotation Xrotation Yrotation
            JOINT HandRight
            {
              OFFSET -0.136730 -2.611606 0.985463
              CHANNELS 3 Zrotation Xrotation Yrotation
              JOINT HandTipRight
              {
                OFFSET -1.266200 -7.496705 1.262994
                CHANNELS 3 Zrotation Xrotation Yrotation
                End Site
                {
                  OFFSET 0 0 0
                }
              }
              JOINT ThumbRight
              {
                OFFSET -3.468081 -0.444155 1.352524
                CHANNELS 3 Zrotation Xrotation Yrotation
                End Site
                {
                  OFFSET 0 0 0
                }
              }
            }
          }
        }
      }
    }
  }
  JOINT HipLeft
  {
    OFFSET -4.491168 0.831379 1.828634
    CHANNELS 3 Zrotation Xrotation Yrotation
    JOINT KneeLeft
    {
      OFFSET 8.891175 -28.732197 7.740235
      CHANNELS 3 Zrotation Xrotation Yrotation
      JOINT AnkleLeft
      {
        OFFSET 8.899409 -27.985008 3.189142
        CHANNELS 3 Zrotation Xrotation Yrotation
        JOINT FootLeft
        {
          OFFSET -2.606321 -6.216070 -1.018721
          CHANNELS 3 Zrotation Xrotation Yrotation
          End Site
          {
            OFFSET 0 0 0
          }
        }
      }
    }
  }
  JOINT HipRight
  {
    OFFSET 3.643885 0.797718 -8.530442
    CHANNELS 3 Zrotation Xrotation Yrotation
    JOINT KneeRight
    {
      OFFSET 9.954355 -27.364901 2.935918
      CHANNELS 3 Zrotation Xrotation Yrotation
      JOINT AnkleRight
      {
        OFFSET 8.055359 -30.422303 5.195844
        CHANNELS 3 Zrotation Xrotation Yrotation
        JOINT FootRight
        {
          OFFSET -7.250361 -3.194163 -7.273861
          CHANNELS 3 Zrotation Xrotation Yrotation
          End Site
          {
            OFFSET 0 0 0
          }
        }
      }
    }
  }
}
MOTION
Frames: 16
Frame Time: 0.033333
41.988124 94.939373 330.584887 0.000000 0.000000 51.857208 -0.000000 0.000000 -51.857208 -0.000000 0.000000 0.000000 -0.000000 0.000000 0.000000 0.000000 0.000000 0.000000 -0.000000 0.000000 0.000000 -0.000000 0.000000 0.000000 -0.000000 0.000000 0.000000 -0.000000 0.000000 0.000000 0.000000 0.000000 0.000000 0.000000 0.000000 0.000000 -0.000000 0.000000 0.000000 -0.000000 0.000000 0.000000 -0.000000 0.000000 0.000000 -0.000000 0.000000 0.000000 0.000000 0.000000 0.000000 0.000000 0.000000 0.000000 -0.000000 0.000000 -51.857208 -0.000000 0.000000 0.000000 -0.000000 0.000000 0.000000 0.000000 0.000000 0.000000 -0.000000 0.000000 -51.857208 -0.000000 0.000000 0.000000 -0.000000 0.000000 0.000000 0.000000 0.000000 0.000000
42.299265 95.045809 330.458590 0.367364 0.185865 51.994237 -0.372652 0.175021 -51.994264 -0.000000 0.000000 0.000000 -0.000000 0.000000 0.000000 0.000000 0.000000 0.000000 -0.000000 0.000000 0.000000 -0.000000 0.000000 0.000000 0.443832 -2.226856 0.091456 0.443974 4.784122 -0.442412 0.000000 0.000000 0.000000 0.000000 0.000000 0.000000 -0.000000 0.000000 0.000000 0.986304 -1.467851 0.200174 1.498559 6.708442 0.310642 -1.454850 -7.096982 -0.166663 0.000000 0.000000 0.000000 0.000000 0.000000 0.000000 -0.372652 0.175021 -51.994264 -0.000000 0.000000 0.000000 -17.406157 20.862369 -2.504481 0.000000 0.000000 0.000000 -1.373030 0.399466 -52.311381 0.789208 0.654433 0.317626 -0.000000 0.000000 0.000000 0.000000 0.000000 0.000000
42.525188 95.112454 330.376675 0.647839 0.304291 52.117424 -0.637969 0.324476 -52.117337 -0.000000 0.000000 0.000000 -0.000000 0.000000 0.000000 0.000000 0.000000 0.000000 -0.000000 0.000000 0.000000 -0.000000 0.000000 0.000000 0.299324 -3.944500 0.231800 1.325618 8.360501 -0.961939 0.000000 0.000000 0.000000 0.000000 0.000000 0.000000 0.753907 -0.655727 -0.266990 0.889924 -1.709935 0.587473 1.722453 11.202552 0.131097 -1.777131 -11.859560 0.028042 0.000000 0.000000 0.000000 0.000000 0.000000 0.000000 -0.991725 -0.679483 -52.240211 -1.625344 0.915100 0.030422 -26.903079 32.369740 -0.792045 0.000000 0.000000 0.000000 -2.299897 0.740426 -52.632556 1.339192 1.068429 0.518177 -0.000000 0.000000 0.000000 0.000000 0.000000 0.000000
42.665895 95.139308 330.339141 0.840533 0.354802 52.230053 -0.795282 0.447113 -52.229552 -0.000000 0.000000 0.000000 -0.000000 0.000000 0.000000 0.000000 0.000000 0.000000 -0.000000 0.000000 0.000000 -0.000000 0.000000 0.000000 -0.505987 -5.000597 0.394217 2.754669 10.693288 -1.547616 0.000000 0.000000 0.000000 0.000000 0.000000 0.000000 1.027923 -0.673223 -0.320712 0.931743 -2.034604 0.684127 1.284620 14.396501 -0.188374 -1.530232 -15.232500 0.377929 0.000000 0.000000 0.000000 0.000000 0.000000 0.000000 -1.371194 -0.484543 -52.443105 -1.331131 0.848478 0.069478 -33.240502 38.336944 1.329576 0.000000 0.000000 0.000000 -2.797905 1.018793 -52.835028 1.665225 1.250637 0.612921 -0.000000 0.000000 0.000000 0.000000 0.000000 0.000000
42.721384 95.126371 330.345989 0.944932 0.337211 52.334584 -0.844338 0.541951 -52.333372 -0.000000 0.000000 0.000000 -0.000000 0.000000 0.000000 0.000000 0.000000 0.000000 -0.000000 0.000000 0.000000 -0.000000 0.000000 0.000000 -1.987979 -5.290948 0.570064 4.755469 11.737599 -2.165379 0.000000 0.000000 0.000000 0.000000 0.000000 0.000000 1.223902 -0.467626 -0.318807 0.711270 -2.029917 0.636957 0.376373 16.742108 -0.554637 -0.926258 -17.656900 0.792371 0.000000 0.000000 0.000000 0.000000 0.000000 0.000000 -1.670043 0.070296 -52.655158 0.125892 0.942538 0.325163 -37.307635 41.197002 2.344255 0.000000 0.000000 0.000000 -2.876595 1.232405 -52.928193 1.775709 1.205436 0.607610 -0.000000 0.000000 0.000000 0.000000 0.000000 0.000000
42.691657 95.073643 330.397219 0.960891 0.251610 52.432672 -0.785297 0.608231 -52.430614 -0.000000 0.000000 0.000000 -0.000000 0.000000 0.000000 0.000000 0.000000 0.000000 -0.000000 0.000000 0.000000 -0.000000 0.000000 0.000000 -4.091984 -4.780000 0.776204 7.257972 11.471412 -2.750054 0.000000 0.000000 0.000000 0.000000 0.000000 0.000000 1.336107 -0.033844 -0.260093 0.235190 -1.699247 0.441542 -0.994145 18.518348 -0.968997 -0.010194 -19.366024 1.254788 0.000000 0.000000 0.000000 0.000000 0.000000 0.000000 -1.886704 0.992449 -52.876309 1.367987 -0.280681 0.203453 -39.674201 42.950072 3.939897 0.000000 0.000000 0.000000 -2.538044 1.380406 -52.916752 1.672574 0.932817 0.502941 -0.000000 0.000000 0.000000 0.000000 0.000000 0.000000
42.778121 95.031584 330.353870 1.054121 0.245051 52.435533 -0.836912 0.686167 -52.432776 0.872355 -0.170559 0.059696 -0.872180 0.171448 -0.057092 0.000000 0.000000 0.000000 -0.872180 0.171448 -0.057092 -0.000000 0.000000 0.000000 -4.472066 -4.532613 0.810822 8.758885 12.601584 -3.528982 0.000000 0.000000 0.000000 0.000000 0.000000 0.000000 0.493092 0.648229 -0.233071 -0.193076 -1.176297 0.154026 -0.946704 17.278569 -0.839788 -1.468443 -17.239630 0.273163 0.000000 0.000000 0.000000 0.000000 0.000000 0.000000 -2.698741 2.304303 -53.190838 4.311017 -0.965979 0.537590 -35.993239 39.540714 2.042354 0.000000 0.000000 0.000000 -2.463697 1.685043 -52.839968 1.778336 0.693294 0.430096 -0.000000 0.000000 0.000000 0.000000 0.000000 0.000000
42.631377 94.881518 330.497039 0.878715 0.011406 52.520546 -0.543755 0.690373 -52.517357 1.019701 -0.182751 0.070135 -1.019482 0.183971 -0.066872 0.000000 0.000000 0.000000 -1.019482 0.183971 -0.066872 -0.000000 0.000000 0.000000 -6.768713 -0.997476 1.034977 9.686680 4.669262 -2.791699 0.000000 0.000000 0.000000 0.000000 0.000000 0.000000 0.253521 1.181869 -0.129286 -0.578738 -0.268307 -0.239098 -6.276047 22.062579 -2.126570 3.397042 -21.303835 2.751046 0.000000 0.000000 0.000000 0.000000 0.000000 0.000000 -2.970222 4.138976 -53.507899 7.565167 -2.115683 0.878973 -35.259273 38.353362 1.507122 0.000000 0.000000 0.000000 -1.282348 1.782110 -52.614490 1.315816 -0.075941 0.113940 -0.000000 0.000000 0.000000 0.000000 0.000000 0.000000
41.715958 94.673902 331.193388 -0.138818 -0.906277 52.420100 0.802907 0.442675 -52.424300 0.727929 -0.394807 0.047451 -0.727619 0.395377 -0.042432 0.000000 0.000000 0.000000 -0.727619 0.395377 -0.042432 1.397899 -0.307412 0.138871 -15.937683 4.842492 2.408080 16.694878 -1.081330 -2.210885 0.000000 0.000000 0.000000 0.000000 0.000000 0.000000 0.395978 2.276709 0.083815 -1.730773 1.491966 -0.861949 -14.156779 27.919350 -3.679332 11.993727 -26.496392 7.743411 0.000000 0.000000 0.000000 0.000000 0.000000 0.000000 -0.675353 5.836685 -53.095024 10.040457 -4.620301 0.833733 -35.245013 37.346581 1.299907 0.000000 0.000000 0.000000 2.798740 1.150296 -51.649418 -0.798531 -3.142963 -1.138034 0.091705 1.141153 0.317391 0.000000 0.000000 0.000000
41.049895 94.448751 331.605305 -0.499168 -1.296691 52.935026 0.150016 -0.009505 -52.964704 0.528262 0.376842 0.014386 -0.127385 0.806068 0.004066 0.000000 0.000000 0.000000 -0.127385 0.806068 0.004066 2.074345 -0.814551 0.178097 -23.738175 8.420277 4.339014 22.939789 -7.909084 -1.931247 0.000000 0.000000 0.000000 0.000000 0.000000 0.000000 1.110863 4.115370 0.357433 -4.467396 4.133991 -1.617804 -18.111595 30.313806 -4.983643 17.275069 -27.835996 10.903605 0.000000 0.000000 0.000000 0.000000 0.000000 0.000000 0.358343 8.253083 -53.511811 13.670770 -7.153075 1.206085 -36.464219 36.772366 1.581454 0.000000 0.000000 0.000000 5.414626 0.682910 -51.500240 -2.519790 -5.065949 -2.042188 0.150741 1.695335 0.473475 0.000000 0.000000 0.000000
40.888702 94.188686 331.369921 0.034226 -0.774975 53.733203 -0.766221 0.217555 -53.756375 0.550565 0.208729 0.004406 -1.043755 1.626335 0.389073 0.000000 0.000000 0.000000 0.043453 1.055571 0.018455 -0.000000 0.000000 0.000000 -24.728362 9.623340 5.136357 22.303258 -15.167089 -0.318990 0.000000 0.000000 0.000000 0.000000 0.000000 0.000000 1.177678 6.916280 0.856489 -7.919714 6.365582 -2.634482 -17.438661 27.940353 -6.495118 16.416660 -25.196408 10.082123 0.000000 0.000000 0.000000 0.000000 0.000000 0.000000 -1.324352 11.020566 -54.727152 17.915048 -8.320256 2.089305 -37.978993 36.446221 2.222367 0.000000 0.000000 0.000000 5.188804 0.387230 -52.155624 -3.186286 -5.769659 -2.352915 0.156134 1.913718 1.433174 0.000000 0.000000 0.000000
40.855478 93.924222 331.090582 0.595466 -0.481507 55.076707 -1.162343 0.599571 -55.086581 0.620138 -0.144875 0.006239 -1.091171 2.342772 0.509058 0.000000 0.000000 0.000000 -0.058763 1.236236 0.015051 -1.936856 0.744181 -0.142443 -25.909657 12.852088 6.355509 31.654692 -21.368487 -1.967152 0.000000 0.000000 0.000000 0.000000 0.000000 0.000000 0.730535 10.641396 1.592422 -11.337973 7.671043 -4.003197 -18.576838 26.907825 -8.692851 17.169208 -21.257407 10.620276 0.000000 0.000000 0.000000 0.000000 0.000000 0.000000 -2.986651 14.340180 -56.578044 22.812769 -9.146440 3.227738 -40.520380 36.462022 3.192135 0.000000 0.000000 0.000000 5.021223 0.107820 -53.415774 -3.929435 -6.251737 -2.608169 -1.354530 4.257480 0.949245 0.000000 0.000000 0.000000
40.947103 93.724730 330.778431 1.330463 -0.222625 57.048468 -1.313156 0.978602 -57.039149 0.642025 -0.526807 0.022418 -2.041204 2.800622 0.713269 0.000000 0.000000 0.000000 -0.436677 1.318955 -0.005744 -6.003875 3.697963 -0.143556 -21.021503 7.053206 4.667762 32.883240 -22.806393 -4.450140 0.000000 0.000000 0.000000 0.000000 0.000000 0.000000 -0.480695 15.222669 2.669441 -15.176496 8.046597 -5.800345 -17.869758 26.281108 -10.758939 18.107301 -19.172294 11.551299 0.000000 0.000000 0.000000 0.000000 0.000000 0.000000 -4.317954 17.954597 -59.019256 26.192226 -10.084947 4.024578 -42.801637 36.314287 4.913234 0.000000 0.000000 0.000000 4.341521 0.034763 -55.462595 -4.153139 -6.277559 -2.604727 0.593293 1.382470 3.798948 0.000000 0.000000 0.000000
41.168064 93.514582 330.492753 2.254076 -0.040635 58.785526 -1.133863 1.948682 -58.765442 1.146876 -1.377300 0.073239 -3.350185 3.311538 0.929135 0.000000 0.000000 0.000000 -1.145446 1.378489 -0.045673 -11.180186 7.325324 0.137402 -14.517593 -1.103089 2.855316 34.185709 -24.311366 -8.469804 0.000000 0.000000 0.000000 0.000000 0.000000 0.000000 -2.994697 20.248256 4.245539 -19.036383 8.120278 -8.045260 -14.710638 25.054470 -12.298941 18.054418 -20.044984 11.506016 0.000000 0.000000 0.000000 0.000000 0.000000 0.000000 -5.319640 21.212663 -61.108559 27.550999 -10.661835 4.389391 -43.836712 37.178192 6.306286 0.000000 0.000000 0.000000 3.485929 0.551233 -57.319302 -3.890980 -6.248741 -2.510247 2.368459 -1.024785 5.862029 0.000000 0.000000 0.000000
41.570916 93.341230 330.205420 3.315013 0.093146 60.081038 -1.181651 1.358503 -60.024608 0.591945 -1.128564 0.112013 -4.313897 4.100447 1.065077 0.000000 0.000000 0.000000 -2.137878 1.386136 -0.102914 -18.537664 10.348015 0.544850 -8.143962 -6.274410 2.677787 38.698545 -21.454319 -11.286906 0.000000 0.000000 0.000000 0.000000 0.000000 0.000000 -6.822930 25.134822 6.370922 -22.643292 8.419435 -10.553319 -12.178557 24.746885 -14.136795 19.576485 -22.538214 12.168131 0.000000 0.000000 0.000000 0.000000 0.000000 0.000000 -7.382880 25.284109 -62.903489 28.816048 -9.761150 4.975854 -43.592143 38.427363 6.979010 0.000000 0.000000 0.000000 1.744016 1.636159 -59.006281 -2.658749 -5.394419 -1.977853 3.676952 -3.028223 7.083187 0.000000 0.000000 0.000000
42.187241 93.204912 329.884040 4.671562 0.283144 60.532578 -1.054324 1.343783 -60.449313 0.482011 -1.276071 0.185862 -6.019928 4.867826 1.300282 0.000000 0.000000 0.000000 -3.461798 1.262553 -0.185161 -26.103507 13.851341 1.548641 6.364519 -27.341431 1.623520 32.311312 -12.297002 -21.335190 0.000000 0.000000 0.000000 0.000000 0.000000 0.000000 -11.674061 29.899420 9.026428 -26.641123 8.722828 -13.392651 -9.100756 24.159862 -16.131221 20.735217 -22.525273 12.918370 0.000000 0.000000 0.000000 0.000000 0.000000 0.000000 -10.947971 29.409191 -63.698978 29.753171 -7.388319 5.713781 -44.225932 40.672626 7.908206 0.000000 0.000000 0.000000 -0.942326 3.497242 -60.006958 -0.594932 -3.865543 -1.145567 4.470493 -4.579867 7.556353 0.000000 0.000000 0.000000
